<svg width="72" height="43" viewBox="0 0 72 43" fill="none" xmlns="http://www.w3.org/2000/svg">
<path fill-rule="evenodd" clip-rule="evenodd" d="M20.4373 15.6708C20.4373 16.5407 20.5317 17.2461 20.6967 17.7633C20.8854 18.2805 21.1213 18.8448 21.4514 19.4561C21.5693 19.6442 21.6165 19.8323 21.6165 19.9968C21.6165 20.232 21.475 20.4671 21.1684 20.7022L19.6827 21.6896C19.4704 21.8307 19.2581 21.9012 19.0695 21.9012C18.8336 21.9012 18.5978 21.7837 18.362 21.5721C18.0318 21.2194 17.7488 20.8432 17.513 20.4671C17.2771 20.0674 17.0413 19.6207 16.7819 19.0799C14.9424 21.2429 12.6312 22.3244 9.8483 22.3244C7.86728 22.3244 6.28718 21.7602 5.13159 20.6316C3.97599 19.5031 3.3864 17.9984 3.3864 16.1175C3.3864 14.1191 4.09391 12.4968 5.53251 11.2743C6.97111 10.0517 8.88138 9.4404 11.3105 9.4404C12.1123 9.4404 12.9377 9.51093 13.8103 9.62848C14.6829 9.74604 15.5791 9.93413 16.5225 10.1457V8.42942C16.5225 6.64258 16.1451 5.3965 15.414 4.66766C14.6594 3.93881 13.3858 3.58615 11.5699 3.58615C10.7445 3.58615 9.89547 3.68019 9.02288 3.89179C8.15028 4.10339 7.30128 4.36201 6.47585 4.69117C6.09851 4.85574 5.81551 4.94979 5.65043 4.99681C5.48534 5.04383 5.36742 5.06734 5.27309 5.06734C4.94292 5.06734 4.77783 4.83223 4.77783 4.3385V3.18646C4.77783 2.81028 4.825 2.52815 4.94292 2.36357C5.06084 2.199 5.27309 2.03442 5.60326 1.86984C6.42868 1.44664 7.4192 1.09398 8.57479 0.811847C9.73038 0.506204 10.9567 0.365137 12.2538 0.365137C15.0603 0.365137 17.112 0.999935 18.4327 2.26953C19.7298 3.53913 20.3902 5.46703 20.3902 8.05325V15.6708H20.4373ZM10.8624 19.2445C11.6407 19.2445 12.4425 19.1034 13.2915 18.8213C14.1405 18.5392 14.8952 18.0219 15.5319 17.3166C15.9093 16.8699 16.1923 16.3762 16.3338 15.8119C16.4753 15.2476 16.5696 14.5658 16.5696 13.7664V12.779C15.8857 12.6144 15.1546 12.4733 14.3999 12.3793C13.6453 12.2852 12.9142 12.2382 12.1831 12.2382C10.603 12.2382 9.44738 12.5439 8.66912 13.1786C7.89087 13.8134 7.51353 14.7069 7.51353 15.8824C7.51353 16.9874 7.79653 17.8103 8.38612 18.3746C8.95213 18.9624 9.77755 19.2445 10.8624 19.2445Z" fill="#A7A7A7"/>
<path d="M29.8 21.7837C29.3755 21.7837 29.0925 21.7132 28.9038 21.5486C28.7152 21.4075 28.5501 21.0784 28.4086 20.6316L22.8664 2.45762C22.7249 1.9874 22.6542 1.68176 22.6542 1.51718C22.6542 1.141 22.8429 0.929402 23.2202 0.929402H25.5314C25.9795 0.929402 26.2861 0.999935 26.4511 1.16451C26.6398 1.30558 26.7813 1.63473 26.9228 2.08144L30.8848 17.6457L34.5639 2.08144C34.6818 1.61122 34.8233 1.30558 35.012 1.16451C35.2006 1.02345 35.5308 0.929402 35.9553 0.929402H37.842C38.2901 0.929402 38.5967 0.999935 38.7854 1.16451C38.974 1.30558 39.1391 1.63473 39.2334 2.08144L42.9596 17.8338L47.0396 2.08144C47.1811 1.61122 47.3462 1.30558 47.5113 1.16451C47.6999 1.02345 48.0065 0.929402 48.431 0.929402H50.6243C51.0016 0.929402 51.2139 1.11749 51.2139 1.51718C51.2139 1.61758 51.1967 1.71799 51.177 1.83304L51.1667 1.89335C51.1431 2.03442 51.096 2.22251 51.0016 2.48113L45.318 20.6552C45.1765 21.1254 45.0114 21.431 44.8227 21.5721C44.6341 21.7132 44.3275 21.8072 43.9266 21.8072H41.8984C41.4503 21.8072 41.1437 21.7367 40.955 21.5721C40.7664 21.4075 40.6013 21.1019 40.507 20.6316L36.8515 5.46703L33.2196 20.6081C33.1017 21.0784 32.9602 21.384 32.7715 21.5486C32.5829 21.7132 32.2527 21.7837 31.8282 21.7837H29.8Z" fill="#A7A7A7"/>
<path d="M60.1049 22.4185C58.8786 22.4185 57.6522 22.2774 56.473 21.9953C55.2939 21.7132 54.3741 21.4075 53.7609 21.0548C53.3836 20.8432 53.1242 20.6081 53.0298 20.3965C52.9355 20.1849 52.8883 19.9498 52.8883 19.7382V18.5392C52.8883 18.0454 53.077 17.8103 53.4308 17.8103C53.5723 17.8103 53.7138 17.8338 53.8553 17.8809C53.9466 17.9112 54.0675 17.9612 54.2052 18.0181C54.2807 18.0493 54.3613 18.0826 54.4448 18.116C55.2467 18.4686 56.1193 18.7508 57.039 18.9389C57.9824 19.1269 58.9021 19.221 59.8455 19.221C61.3312 19.221 62.4868 18.9624 63.2887 18.4451C64.0905 17.9279 64.515 17.1755 64.515 16.2116C64.515 15.5533 64.3028 15.0125 63.8783 14.5658C63.4538 14.1191 62.6519 13.7194 61.4963 13.3432L58.0767 12.2852C56.3551 11.7445 55.0816 10.9451 54.3033 9.8871C53.5251 8.85262 53.1242 7.70058 53.1242 6.47801C53.1242 5.49054 53.3364 4.62063 53.7609 3.86828C54.1854 3.11593 54.7514 2.45762 55.4589 1.94038C56.1664 1.39962 56.9683 0.999935 57.9116 0.717803C58.855 0.43567 59.8455 0.318115 60.8832 0.318115C61.402 0.318115 61.9444 0.341626 62.4633 0.412159C63.0057 0.482692 63.5009 0.576737 63.9962 0.670781C64.4679 0.788336 64.9159 0.905891 65.3405 1.04696C65.765 1.18802 66.0951 1.32909 66.331 1.47016C66.6611 1.65824 66.897 1.84633 67.0385 2.05793C67.18 2.24602 67.2507 2.50464 67.2507 2.8338V3.93881C67.2507 4.43255 67.0621 4.69117 66.7083 4.69117C66.5196 4.69117 66.2131 4.59712 65.8121 4.40903C64.4679 3.79775 62.9585 3.4921 61.2841 3.4921C59.9398 3.4921 58.8786 3.7037 58.1475 4.15041C57.4164 4.59712 57.039 5.27894 57.039 6.2429C57.039 6.9012 57.2749 7.46547 57.7465 7.91218C58.2182 8.35889 59.0908 8.8056 60.3407 9.20529L63.6896 10.2633C65.3876 10.804 66.614 11.5564 67.3451 12.5203C68.0762 13.4843 68.4299 14.5893 68.4299 15.8119C68.4299 16.8229 68.2177 17.7398 67.8167 18.5392C67.3922 19.3385 66.8262 20.0439 66.0951 20.6081C65.364 21.1959 64.4914 21.6191 63.4774 21.9248C62.4161 22.2539 61.3077 22.4185 60.1049 22.4185Z" fill="#A7A7A7"/>
<path d="M64.5622 33.8448C56.8032 39.5579 45.5303 42.5908 35.8374 42.5908C22.2533 42.5908 10.0135 37.583 0.768727 29.2601C0.0376369 28.6018 0.697976 27.7084 1.57057 28.2256C11.57 34.0093 23.9042 37.5125 36.6629 37.5125C45.2709 37.5125 54.7279 35.7256 63.4302 32.0579C64.7273 31.4701 65.8357 32.9043 64.5622 33.8448Z" fill="#A7A7A7"/>
<path d="M58.7138 29.8715C61.2372 29.5659 66.8029 28.9076 67.7934 30.1772C68.7839 31.4232 66.685 36.6662 65.7417 38.9938C65.4587 39.6991 66.0718 39.9812 66.7086 39.4405C70.8592 35.9608 71.9441 28.696 71.0951 27.638C70.2461 26.6035 62.9588 25.7101 58.5251 28.8135C57.8412 29.3073 57.9591 29.9656 58.7138 29.8715Z" fill="#A7A7A7"/>
</svg>
