<svg width="47" height="47" viewBox="0 0 47 47" fill="none" xmlns="http://www.w3.org/2000/svg">
<path d="M23.5 14.6875C21.7571 14.6875 20.0532 15.2043 18.604 16.1727C17.1548 17.141 16.0253 18.5173 15.3583 20.1276C14.6913 21.7379 14.5168 23.5098 14.8568 25.2192C15.1969 26.9287 16.0362 28.4989 17.2686 29.7314C18.5011 30.9638 20.0713 31.8031 21.7808 32.1432C23.4902 32.4832 25.2621 32.3087 26.8724 31.6417C28.4827 30.9747 29.859 29.8452 30.8273 28.396C31.7957 26.9468 32.3125 25.2429 32.3125 23.5C32.3101 21.1635 31.3808 18.9234 29.7287 17.2713C28.0766 15.6192 25.8365 14.6899 23.5 14.6875ZM23.5 27.9062C22.6285 27.9062 21.7766 27.6478 21.052 27.1637C20.3274 26.6795 19.7627 25.9913 19.4292 25.1862C19.0957 24.3811 19.0084 23.4951 19.1784 22.6404C19.3484 21.7857 19.7681 21.0005 20.3843 20.3843C21.0005 19.7681 21.7857 19.3484 22.6404 19.1784C23.4951 19.0084 24.3811 19.0957 25.1862 19.4292C25.9913 19.7627 26.6795 20.3274 27.1637 21.052C27.6478 21.7766 27.9062 22.6285 27.9062 23.5C27.9062 24.6686 27.442 25.7894 26.6157 26.6157C25.7894 27.442 24.6686 27.9062 23.5 27.9062ZM32.3125 3.67188H14.6875C11.767 3.67528 8.96713 4.83694 6.90203 6.90203C4.83694 8.96713 3.67528 11.767 3.67188 14.6875V32.3125C3.67528 35.233 4.83694 38.0329 6.90203 40.098C8.96713 42.1631 11.767 43.3247 14.6875 43.3281H32.3125C35.233 43.3247 38.0329 42.1631 40.098 40.098C42.1631 38.0329 43.3247 35.233 43.3281 32.3125V14.6875C43.3247 11.767 42.1631 8.96713 40.098 6.90203C38.0329 4.83694 35.233 3.67528 32.3125 3.67188ZM38.9219 32.3125C38.9219 34.0654 38.2255 35.7465 36.986 36.986C35.7465 38.2255 34.0654 38.9219 32.3125 38.9219H14.6875C12.9346 38.9219 11.2535 38.2255 10.014 36.986C8.77447 35.7465 8.07812 34.0654 8.07812 32.3125V14.6875C8.07812 12.9346 8.77447 11.2535 10.014 10.014C11.2535 8.77447 12.9346 8.07812 14.6875 8.07812H32.3125C34.0654 8.07812 35.7465 8.77447 36.986 10.014C38.2255 11.2535 38.9219 12.9346 38.9219 14.6875V32.3125ZM35.9844 13.9531C35.9844 14.5341 35.8121 15.102 35.4893 15.5851C35.1665 16.0682 34.7078 16.4447 34.171 16.667C33.6343 16.8894 33.0436 16.9475 32.4738 16.8342C31.904 16.7208 31.3806 16.4411 30.9697 16.0303C30.5589 15.6194 30.2792 15.096 30.1658 14.5262C30.0525 13.9564 30.1106 13.3658 30.333 12.829C30.5553 12.2922 30.9318 11.8335 31.4149 11.5107C31.898 11.1879 32.4659 11.0156 33.0469 11.0156C33.8259 11.0156 34.5731 11.3251 35.124 11.876C35.6749 12.4269 35.9844 13.1741 35.9844 13.9531Z" fill="#598EFF"/>
</svg>
