<svg width="45" height="69" viewBox="0 0 45 69" fill="none" xmlns="http://www.w3.org/2000/svg">
<path d="M11.3636 0.363525C5.34185 0.363525 0.45459 5.45443 0.45459 11.7271C0.45459 17.9952 5.33459 23.0832 11.3502 23.0908C5.33459 23.0983 0.45459 28.1863 0.45459 34.4543C0.45459 40.727 5.34185 45.8179 11.3636 45.8179H22.2727V23.0908V0.363525H11.3636Z" fill="#A7A7A7"/>
<path d="M11.3636 68.5453C17.3855 68.5453 22.2727 63.4544 22.2727 57.1817V45.8179H11.3636C5.34185 45.8179 0.45459 50.9089 0.45459 57.1817C0.45459 63.4544 5.34185 68.5453 11.3636 68.5453Z" fill="#A7A7A7"/>
<path d="M22.2727 0.363525H33.1818C39.2037 0.363525 44.091 5.45443 44.091 11.7271C44.091 17.9952 39.2109 23.0832 33.1953 23.0908C39.2109 23.0983 44.091 28.1863 44.091 34.4543C44.091 40.727 39.2037 45.8179 33.1818 45.8179C27.16 45.8179 22.2727 40.727 22.2727 34.4543C22.2727 28.1887 27.149 23.1022 33.1614 23.0908H22.2727V0.363525Z" fill="#A7A7A7"/>
</svg>
