<svg width="69" height="69" viewBox="0 0 69 69" fill="none" xmlns="http://www.w3.org/2000/svg">
<g clip-path="url(#clip0_170_276)">
<path d="M38.8027 68.3997C37.9142 68.2442 36.9938 67.8223 36.4718 67.3557C36.1174 66.9839 35.9152 66.4928 35.905 65.9793C35.905 65.4573 36.1713 64.7244 36.5932 63.9936C36.8489 63.5823 37.0492 63.1392 37.1919 62.6726C37.2814 62.3508 37.4689 61.8288 37.6138 61.4965L37.8695 60.8871L37.9355 56.8155C37.9696 54.5634 38.0356 52.4775 38.091 52.1537C38.2359 51.2205 38.4788 50.3107 38.8005 49.4243L39.0456 48.8363L38.6897 48.6254C38.368 48.4251 38.1017 48.1481 37.047 46.8932C35.7495 45.3612 34.0407 44.5175 31.6203 44.2299C30.832 44.1532 30.033 44.0956 29.234 44.0637C25.6823 43.8975 23.6518 43.1539 21.8216 41.3557C20.4559 40.0134 19.7464 38.4474 19.4587 36.1399C19.071 33.0207 18.6384 31.4227 17.8394 30.1251C17.6425 29.8047 17.4157 29.5036 17.1619 29.226L16.8402 28.9043L16.1307 29.3602C15.7429 29.6159 15.1975 29.9376 14.9311 30.0825C14.0427 30.5704 13.1989 31.1138 12.3893 31.7018C10.4036 33.1442 8.23885 34.9531 7.05209 36.1399C6.51944 36.6726 6.24246 36.9048 6.11888 36.8835C5.30924 36.762 5.92925 33.255 7.25024 30.6131C8.9377 27.2062 11.7778 24.0656 15.0632 21.9457C17.7606 20.2028 22.122 17.8059 24.1397 16.9621C27.7234 15.4643 32.3618 13.8429 35.5364 12.9779C36.2033 12.7882 36.6124 12.6221 36.8894 12.4346C37.5115 12.002 38.1209 11.7911 38.8197 11.7805C39.4078 11.7698 39.4632 11.7592 40.0299 11.3799C40.6968 10.9474 40.8949 10.9239 41.5618 11.1583L41.9943 11.3139L42.527 10.9474L43.0597 10.5916L43.8246 10.6022C44.4126 10.6129 44.6789 10.5916 44.9346 10.4808C45.2563 10.3359 45.267 10.3146 45.3565 9.78193C45.5568 8.62714 45.5781 8.04974 45.4566 7.35089C45.3011 6.43046 45.2798 2.8574 45.4353 2.15643C45.6015 1.40218 45.7123 1.24665 46.279 0.969668C47.1228 0.558457 47.7556 0.437012 49.2086 0.437012C50.9835 0.437012 51.8826 0.682034 52.5495 1.32548C53.1482 1.90288 53.2483 3.25583 52.9372 6.43046C52.7476 8.26067 52.7263 8.77202 52.7817 9.96943C52.803 10.7343 52.8584 11.4566 52.8818 11.5567C52.9266 11.7464 52.9713 11.757 53.6148 11.7677C54.2476 11.7783 54.3584 11.8124 54.9571 12.1235C55.5345 12.4239 55.967 12.7904 56.0565 13.0567C56.0671 13.1121 56.1673 13.1121 56.3441 13.0567C56.6871 12.9566 56.9876 13.0674 57.2326 13.3678C57.3775 13.5574 57.4648 13.5894 57.7993 13.5894C58.2553 13.5894 58.4215 13.7002 58.7986 14.2562C58.975 14.5058 59.2168 14.7019 59.4974 14.823C60.1196 15.1341 60.9633 15.9991 61.285 16.6873C61.7836 17.7079 61.8837 18.8946 61.5727 19.9599C61.4619 20.3605 61.4619 20.3711 61.6941 20.7589C62.182 21.592 62.361 22.6126 62.1607 23.4776L62.0499 23.9889L62.3823 24.3213C64.0357 25.9747 63.7906 28.6721 61.7729 31.0797C61.5474 31.3547 61.357 31.6567 61.2062 31.9788C60.8184 33.01 60.3731 33.7323 59.7979 34.331L59.2098 34.9297H58.6111C58.0124 34.9297 57.1687 34.7294 56.6573 34.4631C56.4464 34.3523 56.4357 34.3523 56.4805 34.4844C56.6147 34.9723 56.9471 36.9581 57.0579 38.0575C57.2347 39.7449 57.1793 42.1973 56.9471 43.2519C56.7773 44.033 56.493 44.7848 56.1033 45.4827C55.8818 45.8385 55.8711 45.9152 55.9137 46.3477C55.9798 46.9571 55.837 47.9798 55.592 48.6552C55.2916 49.4435 55.1808 49.81 55.1147 50.2084C55.0593 50.5514 55.0593 50.5514 55.3044 50.5514C55.6261 50.5514 55.8029 50.7411 55.8029 51.1182C55.8029 51.2844 55.658 52.1835 55.4812 53.1039C54.9933 55.6905 54.9592 55.9781 54.9592 58.4859C54.9486 61.0725 54.9485 61.049 55.5366 61.4368L56.8576 62.2912C57.9941 63.0455 59.2111 63.6708 60.486 64.1555C62.3397 64.8884 62.5954 65.0759 62.5954 65.6981C62.5954 65.975 62.54 66.0752 62.3077 66.2968C61.5982 66.985 60.1984 67.1405 57.3796 66.8401C55.9148 66.7028 54.4446 66.6324 52.9735 66.6291C49.0893 66.5737 48.5226 66.4395 48.0134 65.4743C47.7257 64.9204 47.7811 64.1981 48.1796 63.0113C48.3564 62.4893 48.5119 61.9567 48.6462 61.4134C48.9125 60.1265 48.7356 58.5946 48.1135 56.8645L47.5808 55.388C47.0588 53.8901 46.7712 51.148 47.0823 50.528C47.1377 50.4066 47.2378 50.3831 47.5041 50.3938L47.8365 50.4279L48.1135 49.8505C48.3244 49.3945 48.5567 49.0962 49.1895 48.4634L49.9991 47.6538L49.9544 47.1318C49.9203 46.6332 49.2662 44.2128 49.1767 44.2235C49.1426 44.2235 48.9658 44.4685 48.7655 44.7774C48.2776 45.5104 47.2016 46.6417 46.5901 47.053C46.3238 47.2298 46.1022 47.4407 46.1022 47.5089C46.0915 47.8093 45.8359 48.3974 45.5248 48.8065C45.2244 49.207 45.2031 49.2731 45.2478 49.6268C45.3245 50.1488 45.1583 51.8234 44.9602 52.7012C44.7806 53.353 44.535 53.9848 44.2272 54.5868C43.4623 56.1742 42.8849 57.5932 42.7401 58.2494C42.6354 58.8812 42.5686 59.5187 42.5398 60.1584C42.5057 60.9127 42.429 61.6456 42.3736 61.8011C42.2969 62.0121 42.2969 62.1783 42.3629 62.5C42.4183 62.7322 42.4524 63.2542 42.4396 63.6654C42.429 64.2322 42.4737 64.5986 42.6399 65.2634C42.9276 66.3948 42.983 67.1064 42.8509 67.5283C42.7614 67.7946 42.674 67.8947 42.3736 68.0396C41.7067 68.3826 39.8211 68.5723 38.8005 68.3954L38.8027 68.3997ZM41.4979 67.4899C41.8857 67.3791 42.2202 67.0467 42.2202 66.7463C42.2202 66.6121 42.1094 66.2243 41.9752 65.8813C41.7088 65.2272 41.2529 63.495 41.2529 63.2074C41.2529 63.0625 41.2635 63.0518 41.4851 63.1733L41.7301 63.3075V62.9964C41.6946 62.7097 41.6311 62.4271 41.5405 62.1527C41.3296 61.5199 41.3083 61.5092 39.9639 61.4304L39.0541 61.3857L38.7217 61.7074C38.5389 61.8955 38.3788 62.1043 38.2444 62.3295C38.0996 62.6172 38.0442 63.0518 38.1337 63.1498C38.155 63.1839 38.3787 63.1498 38.6216 63.0944C38.7658 63.0515 38.9145 63.0258 39.0647 63.0177C39.0647 63.0284 38.8197 63.2287 38.5108 63.4396C37.1791 64.4389 36.7125 65.0482 36.7125 65.8259C36.7125 66.6355 37.4774 67.2683 38.677 67.458C39.4973 67.5794 41.0952 67.6135 41.4958 67.492L41.4979 67.4899ZM59.5528 66.1689C59.8852 65.7684 59.8405 65.3593 59.4186 64.8927C59.1736 64.6477 58.8966 64.4367 58.5855 64.2705C58.2745 64.1043 57.9634 63.9147 57.6523 63.7166C57.0897 63.3519 56.5118 63.0114 55.9201 62.696C55.4088 62.419 54.9102 62.1293 54.4223 61.8203L54.222 61.6648V58.6137C54.222 55.6074 54.2113 55.5627 54.0558 55.6074C53.2781 55.8183 51.9912 55.9185 50.3613 55.8844L48.5972 55.8631L48.8528 56.4852C49.3301 57.6613 49.5751 59.238 49.5751 61.0469C49.5751 61.7244 49.5304 61.9673 49.3642 62.4446C49.2747 62.6768 49.198 62.9112 49.1192 63.1434C49.0851 63.2436 49.2086 63.3203 49.6625 63.4545C49.9948 63.5546 50.4828 63.6548 50.7619 63.6867L51.2732 63.7421L51.2178 64.2535C51.1624 64.8309 51.2285 65.4402 51.3734 65.6299C51.4628 65.7407 51.7952 65.7854 53.3378 65.8515C54.5032 65.9069 55.7688 66.0283 56.766 66.1732C57.631 66.3074 58.5642 66.4182 58.8412 66.4182C59.3078 66.4289 59.3525 66.4075 59.5507 66.1732L59.5528 66.1689ZM41.7877 60.9766C41.8324 60.9425 41.8985 60.3438 41.9219 59.6343C42.0114 57.6486 42.0881 57.3588 43.0874 55.1174C43.9076 53.2872 44.3423 51.5784 44.3082 50.3682L44.2869 49.6459L43.9758 49.9463C43.3324 50.5898 43.7756 49.5799 44.5426 48.6808C45.12 47.9926 45.3202 47.6154 45.4076 47.0061C45.4523 46.7611 45.5418 46.6396 45.919 46.352C47.33 45.286 48.4172 43.8492 49.0595 42.2015C49.215 41.801 49.6135 40.4374 49.948 39.1718C50.5701 36.8302 50.9025 35.8203 51.2029 35.3878C51.3137 35.2216 51.3584 35.1875 51.3371 35.2983C51.1762 35.8934 51.0503 36.4974 50.96 37.1072C50.8705 37.6505 50.7043 38.7158 50.5935 39.4594C50.3826 40.9807 50.161 41.9565 49.8606 42.7107L49.6603 43.2221L50.193 44.5985C50.747 46.0068 51.0026 47.0295 51.0474 48.016L51.0815 48.57L50.6489 48.6594C50.0781 48.7605 49.5687 49.079 49.2278 49.5479C48.8507 50.0912 48.6398 50.5365 48.7399 50.6345C48.7846 50.6793 49.328 50.7794 49.9501 50.8561C50.9153 50.9669 51.2817 50.9669 52.558 50.8902C53.1119 50.8689 53.6574 50.8135 54.2007 50.7347C54.3221 50.6899 54.4457 50.447 54.6439 49.8142C55.0998 48.3612 55.1872 47.8498 55.1318 46.8292L55.087 45.9301L55.3193 45.6297C55.8626 44.9415 56.2845 43.6994 56.4613 42.2441C56.6722 40.4693 56.2844 36.7514 55.5622 33.5554C55.2191 32.0342 55.0743 31.1244 55.0743 30.4596V29.8716L54.5309 29.927C52.5772 30.1379 50.2143 30.0825 48.7719 29.7821C47.9835 29.6266 45.9978 29.0385 45.5653 28.8489L45.2222 28.6934L45.1775 29.0811C45.1434 29.2921 45.1114 29.503 45.0667 29.7246C45.0007 29.9568 45.022 30.0122 45.4332 30.4128C45.9445 30.9348 46.1001 31.2011 46.1001 31.5548C46.1001 31.7764 45.9786 31.9553 45.3565 32.5988C44.9104 33.0748 44.4155 33.5026 43.8799 33.875L43.1577 34.363L42.8466 35.4389C41.7365 39.3784 41.5256 42.9622 42.2585 45.5253L42.4354 46.1687L42.0796 46.6119C40.7479 48.2866 39.9596 49.5628 39.8382 50.2745C39.7672 50.6249 39.6854 50.973 39.5931 51.3185C39.3055 52.4179 39.0818 54.0265 38.9838 55.7693C38.9155 57.2284 38.8196 58.686 38.6961 60.1414L38.6407 60.5739L39.1947 60.7401C39.5058 60.8402 39.9724 60.951 40.2387 60.9958C40.7373 61.0725 41.6598 61.0512 41.8026 60.9745L41.7877 60.9766ZM52.5622 54.8723C53.4273 54.817 54.2156 54.6827 54.3712 54.5506C54.4372 54.5059 54.516 54.2736 54.5373 54.0393L54.5927 53.6174L53.9045 53.7729C53.3612 53.8837 52.8179 53.9498 52.2725 53.9945C50.9621 54.0499 49.6433 54.0158 48.3436 53.8837C47.9111 53.8177 47.9111 53.8177 48.0432 54.3823C48.154 54.8042 48.1774 54.8255 49.3088 54.9043C50.063 54.9704 51.1177 54.9597 52.5601 54.8702L52.5622 54.8723ZM51.84 52.942C52.9713 52.8419 54.3818 52.599 54.6588 52.4541C54.7483 52.4093 54.825 52.2432 54.8591 52.0535L54.9592 51.4655L55.0146 51.1885L54.7376 51.2439C53.5061 51.4996 52.5729 51.5763 50.7086 51.5763C48.889 51.5763 48.6781 51.5656 48.2009 51.3994C48.0174 51.3221 47.8222 51.2767 47.6235 51.2652C47.5468 51.3099 47.534 51.9427 47.6021 52.3859C47.6469 52.6522 47.6916 52.697 47.958 52.7737C48.8017 53.0059 50.2228 53.0613 51.8421 52.9292L51.84 52.942ZM31.2453 42.9323C34.0855 42.112 37.8034 39.7023 40.8438 36.6853C41.8324 35.6967 41.9539 35.5646 42.086 35.1215L42.2628 34.5547C42.2841 34.51 42.1073 34.4333 41.875 34.3779C41.2657 34.233 40.7991 33.8793 40.7991 33.5576C40.7991 33.368 40.6883 33.1805 40.3665 32.8353C39.8445 32.2472 39.7124 31.9916 39.6571 31.427L39.6123 30.971L38.9902 30.5278C38.6343 30.2722 37.3922 29.584 36.0712 28.9192C35.0654 28.4285 34.0809 27.8954 33.1203 27.3212C32.0102 26.5777 31.2666 25.6892 30.8448 24.6367C30.7681 24.4257 30.6679 24.2489 30.6339 24.2489C30.5444 24.2489 28.0473 26.6565 26.982 27.7878C24.3528 30.5619 22.5439 32.9695 21.3997 35.2003C21.1121 35.7543 20.801 36.4105 20.7115 36.6534L20.5453 37.0965L20.7456 37.8401C20.8671 38.2407 21.1227 38.8948 21.323 39.2826C22.0219 40.659 22.8549 41.4899 24.2313 42.1674C25.7078 42.9004 27.0161 43.156 29.2021 43.122C30.3782 43.1113 30.7233 43.0772 31.2432 42.9217L31.2453 42.9323ZM8.82903 33.1996C10.6933 31.5463 13.2671 29.7374 16.4205 27.8624C18.485 26.6309 26.4642 22.636 30.1374 21.0039C30.8043 20.7035 31.403 20.4265 31.4691 20.3946C31.5351 20.3498 31.7247 19.8726 31.9016 19.3399C32.6793 16.8769 33.067 16.389 34.4754 16.0673C34.6522 16.0225 34.697 15.9671 34.697 15.7903C34.697 15.4686 34.9185 14.725 35.1082 14.3926C35.253 14.1369 35.253 14.1263 35.1295 14.1604C35.0528 14.1817 34.5862 14.3159 34.0982 14.4608C27.3293 16.4146 21.4146 19.0097 16.3097 22.2504C10.8617 25.7126 7.72111 29.8631 6.81133 34.8338L6.74528 35.2003L7.41217 34.5462C7.76798 34.1797 8.41143 33.581 8.8333 33.2145L8.82903 33.1996ZM59.0436 34.1435C59.5869 33.8665 60.4306 32.5903 60.7417 31.5804C60.8312 31.2245 61.008 30.8922 61.2637 30.6152C62.084 29.7054 62.7616 28.052 62.7722 26.9207C62.7722 25.1565 61.7729 24.479 60.3199 25.2332C60.1302 25.3227 59.9768 25.3888 59.9534 25.3675C59.8767 25.2908 60.2858 24.8902 60.7865 24.5791C61.4406 24.1466 61.5641 23.8909 61.5641 22.9705C61.5738 22.2265 61.3527 21.4978 60.9313 20.8846C60.7311 20.5842 60.6544 20.3861 60.6863 20.2625L60.8866 19.5189C61.1636 18.5303 61.0634 17.3989 60.6309 16.6788C59.9875 15.5921 59.1991 15.0595 58.0997 14.97L57.4563 14.9253L57.8334 15.3471C58.9541 16.5573 59.4974 18.0765 59.2758 19.3761C59.1651 20.043 59.0649 20.1751 58.4215 20.4308L58.0443 20.5863L58.0891 21.0977C58.1658 21.9308 58.023 22.5401 57.4904 23.6608C57.2241 24.2276 57.0238 24.7368 57.0472 24.7922C57.1133 24.9818 57.8462 25.3355 58.4236 25.4804L58.9903 25.6146L58.6345 25.7361C58.1679 25.8809 58.0678 26.0919 58.0678 26.8568C58.0678 27.5556 58.1679 27.8454 58.6771 28.6103C58.9094 28.9426 59.0649 29.2878 59.0884 29.486C59.1331 29.797 59.1224 29.8183 58.8668 29.9078C58.577 29.9891 58.2789 30.0377 57.9783 30.0527C56.9343 30.1187 56.8576 30.1528 56.391 30.596C55.9691 30.9966 55.9585 31.0179 55.9585 31.461C55.9585 32.0704 56.1907 33.304 56.3356 33.4702C56.5252 33.6705 57.5777 34.1925 57.989 34.2692C58.3436 34.3582 58.7185 34.3151 59.0436 34.1478V34.1435ZM43.6733 33.3126C44.3508 32.7799 44.8835 32.2472 45.1818 31.7913C45.3714 31.5143 45.382 31.4589 45.2926 31.2245C45.137 30.8687 44.1164 29.9483 43.5497 29.6713C43.1721 29.5021 42.7726 29.3867 42.3629 29.3283L41.6641 29.2388L41.2316 28.6955C40.3325 27.5854 39.8339 26.7204 39.1223 25.0436C38.5001 23.6225 37.9568 22.7915 37.0918 21.9691C36.736 21.6367 36.4824 21.3597 36.5037 21.3597C36.5485 21.3597 36.9703 21.5707 37.4582 21.8264C38.2679 22.2589 38.368 22.293 38.7345 22.2376C40.0555 22.082 41.2209 20.5629 41.6428 18.4323C41.7642 17.8336 42.0093 17.2221 42.2649 16.8556C42.2756 16.845 42.7869 17.1773 43.3856 17.6098C44.9069 18.6858 45.2393 18.852 46.1043 18.8861C46.6711 18.9074 46.9928 18.8648 48.0134 18.6198C50.1887 18.0871 52.5409 17.8762 53.9727 18.0658C54.7824 18.1766 55.9478 18.5324 56.8128 18.9415C57.6672 19.342 57.8334 19.3634 58.1104 19.1183C58.3426 18.9181 58.3426 18.8861 58.3426 18.1425C58.332 17.0431 57.9314 15.8563 57.3221 15.1468C57.011 14.7804 56.1353 14.1817 55.2681 13.7257C54.9599 13.5622 54.6531 13.396 54.3477 13.2272C53.9365 12.9821 53.472 13.0162 52.2064 13.3486C50.7406 13.7257 50.3528 13.7257 48.6781 13.2932C47.257 12.9374 47.1696 12.9267 45.7698 13.1483C45.0262 13.2591 43.1619 13.1931 42.5398 13.0269C42.2287 12.9374 41.9176 12.85 41.6194 12.7392C41.076 12.5283 40.1322 12.4942 39.2778 12.6498C37.5797 12.9502 36.2928 13.8706 35.8262 15.1234C35.5812 15.7562 35.6153 16.0566 35.937 16.2548C36.4483 16.5765 37.1237 17.4543 37.1237 17.7973C37.1237 17.8187 36.9575 17.6759 36.7679 17.4756C36.2907 16.9771 35.8581 16.7533 35.3468 16.7533C35.0159 16.7625 34.6942 16.8639 34.4179 17.0461C34.1416 17.2283 33.9217 17.4841 33.7829 17.7846C33.6336 18.1766 33.5077 18.5772 33.4058 18.9841C33.0947 20.1155 32.8177 20.7163 32.2297 21.5153C31.7077 22.2376 31.631 22.5593 31.8185 23.3689C32.2851 25.4101 33.0947 26.2325 36.4782 28.1522C38.253 29.1621 39.1627 29.7288 39.8296 30.2274C40.341 30.6045 40.3516 30.628 40.3069 30.9156C40.2068 31.5825 40.6286 32.3026 41.4617 32.8907C41.6726 33.0356 41.8047 33.1911 41.8047 33.3019C41.8047 33.5022 42.3715 33.7792 42.7805 33.7792C43.0128 33.7792 43.1918 33.679 43.669 33.3126H43.6733ZM57.3562 29.5712C58.6431 29.6159 58.7091 29.5158 58.023 28.7168C57.3008 27.8837 57.1026 27.2083 57.3689 26.4647L57.4797 26.1771L57.0238 25.9555C56.8682 25.8788 56.7127 25.8 56.5572 25.7446C56.4805 26.045 56.4016 26.3326 56.3356 26.633C56.1694 27.3106 55.9691 29.0641 55.9585 29.8077C55.9585 29.8737 56.0693 29.8524 56.2589 29.731C56.5252 29.5754 56.6594 29.5541 57.3583 29.5754L57.3562 29.5712ZM53.0395 29.5051C53.8172 29.4604 54.6162 29.405 54.8271 29.3709L55.2149 29.3155L55.2596 28.0393C55.3257 26.2197 55.592 25.1437 56.3803 23.4222C56.9343 22.2013 57.1793 21.136 57.0579 20.337C57.0131 19.994 56.9918 19.9706 56.5252 19.7703C55.6708 19.431 54.781 19.1888 53.8726 19.048C52.9969 18.9266 50.421 18.9926 49.4558 19.1822C49.0552 19.2483 48.3244 19.4038 47.8365 19.5253C46.6263 19.8023 45.9829 19.7703 45.0624 19.3697C44.1527 18.9692 43.5753 18.6049 43.032 18.0935C42.5994 17.6929 42.5547 17.6716 42.4439 17.8059C42.3544 17.906 42.3097 18.2064 42.2777 18.8499C42.2436 19.8385 42.0881 20.3584 41.6556 21.0572C41.5595 21.201 41.4774 21.3537 41.4106 21.5132C41.4106 21.5472 41.7429 21.935 42.1541 22.3569C43.5753 23.8334 44.2741 24.2105 45.3948 24.1317C45.7613 24.0976 46.017 24.1104 46.017 24.153C46.017 24.2425 45.2947 24.8071 44.9964 24.9626C44.8515 25.0393 44.8196 25.1182 44.8409 25.2844L45.0177 26.4498C45.1178 27.1167 45.1945 27.4256 45.2947 27.5151C45.561 27.7367 46.9374 28.4483 47.8024 28.802C48.9338 29.258 49.5559 29.4242 50.421 29.5009C51.4863 29.5904 51.5076 29.5904 53.0395 29.5009V29.5051ZM43.8629 28.2843C43.8842 28.2502 43.8075 27.6067 43.6626 26.8632C43.4858 25.8532 43.3856 25.4868 43.2748 25.3866C43.1981 25.3206 42.7869 25.0308 42.3757 24.7325C41.8354 24.344 41.3235 23.9175 40.8438 23.4563L40.0789 22.702L39.6677 22.913L39.2352 23.1452C39.2716 23.3186 39.3311 23.4862 39.412 23.6438C39.5335 23.9101 39.7785 24.5642 39.9553 25.0969C40.4219 26.4839 40.7884 27.1508 41.7088 28.3589L42.0519 28.8148L42.706 28.9149C43.0724 28.9703 43.4389 29.0492 43.5391 29.0811C43.6946 29.1472 43.7159 29.1152 43.7606 28.7594C43.7819 28.6039 43.816 28.4377 43.8608 28.2821L43.8629 28.2843ZM57.9229 14.48C58.4896 14.4246 58.5898 14.3457 58.3448 14.0922C58.1892 13.9367 57.8334 13.926 57.5458 14.0581C57.3562 14.1476 57.3135 14.1241 57.0131 13.8024C56.7021 13.4594 56.6807 13.4466 56.2908 13.4914C55.935 13.5361 55.8796 13.5254 55.8349 13.3806C55.6963 13.1426 55.5241 12.9258 55.3235 12.7371C55.0715 12.4507 54.7564 12.2268 54.4031 12.083C53.7149 11.8167 53.3271 11.8508 52.6709 12.2172C50.7725 13.2485 50.8514 13.2378 49.019 12.7712C47.3103 12.3387 46.034 11.8955 45.6228 11.6164C45.2798 11.3842 44.5468 11.1285 43.9353 11.0497C43.4794 10.9836 43.1918 11.0837 42.7592 11.4374L42.527 11.6271L42.7379 11.9935C43.0256 12.5049 42.9936 12.5368 42.5611 12.1597C42.0945 11.7719 41.5405 11.5056 41.1847 11.4928C40.929 11.4928 40.1748 11.8252 40.0853 11.9701C40.0512 12.0148 40.2856 12.0702 40.5967 12.0915C40.9184 12.1256 41.3615 12.2364 41.662 12.3579C42.4396 12.6902 42.8381 12.801 43.5476 12.8692C44.3253 12.9459 45.7336 12.8586 45.8998 12.7243C45.9893 12.6476 46.2322 12.6348 46.7435 12.6796C47.421 12.7243 47.698 12.7904 49.3066 13.2229C50.2399 13.4786 50.894 13.4551 52.004 13.1568C52.5154 13.012 53.1588 12.8692 53.4251 12.8351C53.8811 12.7904 53.9685 12.8138 54.6801 13.1355C55.8115 13.6469 56.4123 13.9686 56.7447 14.2669C57.077 14.5545 57.1218 14.5545 57.9208 14.4885L57.9229 14.48ZM51.5971 12.539L52.2746 12.1831L52.2533 11.495C52.2427 11.0177 52.2192 10.5511 52.1979 10.0866L52.1425 9.37711L51.465 9.89912C51.0644 10.2102 50.6766 10.4424 50.5105 10.4765C50.0225 10.566 47.6149 10.4765 47.3912 10.3551C47.0932 10.1349 46.8145 9.88971 46.5581 9.62214L45.936 8.98934L45.9253 9.36646C45.9253 9.56674 45.904 9.90977 45.8593 10.1207C45.8039 10.5213 45.8039 10.5319 46.2364 11.0752C46.4687 11.3756 46.6583 11.642 46.6583 11.6739C46.6583 11.8849 49.8649 12.8841 50.5872 12.8948C50.8194 12.8948 51.1092 12.7946 51.5971 12.539ZM50.3102 10.0184C51.1092 9.8629 51.4969 9.2855 51.7974 7.82176C52.1084 6.2451 52.264 3.77144 52.1191 2.71678C51.9848 1.76226 50.9195 1.3404 48.889 1.40645C47.6235 1.45119 47.1015 1.57263 46.6689 1.9391C46.4026 2.16069 46.4026 2.18412 46.2812 3.23665C46.0596 5.25649 46.392 8.1307 46.9694 9.20667C47.2463 9.72867 47.4914 9.91616 48.0006 10.0056C48.578 10.1058 49.8095 10.1058 50.308 10.0163L50.3102 10.0184Z" fill="#A7A7A7"/>
</g>
<defs>
<clipPath id="clip0_170_276">
<rect width="68.18" height="68.18" fill="white" transform="translate(0.52832 0.364502)"/>
</clipPath>
</defs>
</svg>
