<svg width="48" height="47" viewBox="0 0 48 47" fill="none" xmlns="http://www.w3.org/2000/svg">
<path d="M24 14.6875C22.2571 14.6875 20.5532 15.2043 19.104 16.1727C17.6548 17.141 16.5253 18.5173 15.8583 20.1276C15.1913 21.7379 15.0168 23.5098 15.3568 25.2192C15.6969 26.9287 16.5362 28.4989 17.7686 29.7314C19.0011 30.9638 20.5713 31.8031 22.2808 32.1432C23.9902 32.4832 25.7621 32.3087 27.3724 31.6417C28.9827 30.9747 30.359 29.8452 31.3273 28.396C32.2957 26.9468 32.8125 25.2429 32.8125 23.5C32.8101 21.1635 31.8808 18.9234 30.2287 17.2713C28.5766 15.6192 26.3365 14.6899 24 14.6875ZM24 27.9062C23.1285 27.9062 22.2766 27.6478 21.552 27.1637C20.8274 26.6795 20.2627 25.9913 19.9292 25.1862C19.5957 24.3811 19.5084 23.4951 19.6784 22.6404C19.8484 21.7857 20.2681 21.0005 20.8843 20.3843C21.5005 19.7681 22.2857 19.3484 23.1404 19.1784C23.9951 19.0084 24.8811 19.0957 25.6862 19.4292C26.4913 19.7627 27.1795 20.3274 27.6637 21.052C28.1478 21.7766 28.4062 22.6285 28.4062 23.5C28.4062 24.6686 27.942 25.7894 27.1157 26.6157C26.2894 27.442 25.1686 27.9062 24 27.9062ZM32.8125 3.67188H15.1875C12.267 3.67528 9.46713 4.83694 7.40203 6.90203C5.33694 8.96713 4.17528 11.767 4.17188 14.6875V32.3125C4.17528 35.233 5.33694 38.0329 7.40203 40.098C9.46713 42.1631 12.267 43.3247 15.1875 43.3281H32.8125C35.733 43.3247 38.5329 42.1631 40.598 40.098C42.6631 38.0329 43.8247 35.233 43.8281 32.3125V14.6875C43.8247 11.767 42.6631 8.96713 40.598 6.90203C38.5329 4.83694 35.733 3.67528 32.8125 3.67188ZM39.4219 32.3125C39.4219 34.0654 38.7255 35.7465 37.486 36.986C36.2465 38.2255 34.5654 38.9219 32.8125 38.9219H15.1875C13.4346 38.9219 11.7535 38.2255 10.514 36.986C9.27447 35.7465 8.57812 34.0654 8.57812 32.3125V14.6875C8.57812 12.9346 9.27447 11.2535 10.514 10.014C11.7535 8.77447 13.4346 8.07812 15.1875 8.07812H32.8125C34.5654 8.07812 36.2465 8.77447 37.486 10.014C38.7255 11.2535 39.4219 12.9346 39.4219 14.6875V32.3125ZM36.4844 13.9531C36.4844 14.5341 36.3121 15.102 35.9893 15.5851C35.6665 16.0682 35.2078 16.4447 34.671 16.667C34.1343 16.8894 33.5436 16.9475 32.9738 16.8342C32.404 16.7208 31.8806 16.4411 31.4697 16.0303C31.0589 15.6194 30.7792 15.096 30.6658 14.5262C30.5525 13.9564 30.6106 13.3658 30.833 12.829C31.0553 12.2922 31.4318 11.8335 31.9149 11.5107C32.398 11.1879 32.9659 11.0156 33.5469 11.0156C34.3259 11.0156 35.0731 11.3251 35.624 11.876C36.1749 12.4269 36.4844 13.1741 36.4844 13.9531Z" fill="#A7A7A7"/>
</svg>
