<svg width="69" height="69" viewBox="0 0 69 69" fill="none" xmlns="http://www.w3.org/2000/svg">
<path fill-rule="evenodd" clip-rule="evenodd" d="M68.5456 0.363525H0.36377V68.5453H68.5456V0.363525ZM23.5088 54.1835L18.2913 57.3412C19.8017 60.5449 22.7767 63.199 27.9023 63.199C33.5779 63.199 37.468 60.1782 37.468 53.5419V31.6657H31.0608V53.4514C31.0608 56.6548 29.7331 57.4784 27.6277 57.4784C25.4312 57.4784 24.5156 55.9682 23.5088 54.1835ZM46.1651 53.6341L40.9482 56.6546C42.8245 60.362 46.6688 63.1998 52.6185 63.1998C58.7055 63.1998 63.2364 60.0421 63.2364 54.2749C63.2364 48.9205 60.1701 46.5408 54.7236 44.2063L53.1218 43.52C50.3759 42.33 49.1859 41.5515 49.1859 39.6294C49.1859 38.0734 50.3759 36.8834 52.2525 36.8834C54.0833 36.8834 55.2728 37.6614 56.3714 39.6294L61.3604 36.4253C59.2553 32.7182 56.3261 31.2992 52.2528 31.2992C46.5316 31.2992 42.8703 34.9608 42.8703 39.7665C42.8703 44.984 45.9366 47.4556 50.5594 49.423L52.1609 50.1102C55.09 51.3913 56.8292 52.1695 56.8292 54.3662C56.8292 56.197 55.1364 57.5244 52.4813 57.5244C49.3236 57.5244 47.5386 55.8769 46.1651 53.6341Z" fill="#A7A7A7"/>
</svg>
