<svg width="47" height="47" viewBox="0 0 47 47" fill="none" xmlns="http://www.w3.org/2000/svg">
<path d="M39.6562 3.67188H7.34375C6.36991 3.67188 5.43595 4.05873 4.74734 4.74734C4.05873 5.43595 3.67188 6.36991 3.67188 7.34375V39.6562C3.67188 40.6301 4.05873 41.564 4.74734 42.2527C5.43595 42.9413 6.36991 43.3281 7.34375 43.3281H39.6562C40.6301 43.3281 41.564 42.9413 42.2527 42.2527C42.9413 41.564 43.3281 40.6301 43.3281 39.6562V7.34375C43.3281 6.36991 42.9413 5.43595 42.2527 4.74734C41.564 4.05873 40.6301 3.67188 39.6562 3.67188ZM38.9219 38.9219H8.07812V8.07812H38.9219V38.9219ZM20.5625 32.3125V22.0312C20.5629 21.5734 20.706 21.1271 20.9718 20.7543C21.2376 20.3815 21.6129 20.1008 22.0457 19.9512C22.4784 19.8015 22.9469 19.7904 23.3862 19.9194C23.8256 20.0484 24.2138 20.311 24.4969 20.6708C25.6159 20.0843 26.8673 19.7964 28.1302 19.8349C29.393 19.8734 30.6245 20.2371 31.7057 20.8907C32.7869 21.5444 33.6811 22.4659 34.302 23.5662C34.9229 24.6666 35.2494 25.9085 35.25 27.1719V32.3125C35.25 32.8968 35.0179 33.4572 34.6047 33.8703C34.1916 34.2835 33.6312 34.5156 33.0469 34.5156C32.4626 34.5156 31.9022 34.2835 31.489 33.8703C31.0759 33.4572 30.8438 32.8968 30.8438 32.3125V27.1719C30.8438 26.3928 30.5343 25.6456 29.9834 25.0947C29.4325 24.5439 28.6853 24.2344 27.9062 24.2344C27.1272 24.2344 26.38 24.5439 25.8291 25.0947C25.2782 25.6456 24.9688 26.3928 24.9688 27.1719V32.3125C24.9688 32.8968 24.7366 33.4572 24.3235 33.8703C23.9103 34.2835 23.3499 34.5156 22.7656 34.5156C22.1813 34.5156 21.6209 34.2835 21.2078 33.8703C20.7946 33.4572 20.5625 32.8968 20.5625 32.3125ZM17.625 22.0312V32.3125C17.625 32.8968 17.3929 33.4572 16.9797 33.8703C16.5666 34.2835 16.0062 34.5156 15.4219 34.5156C14.8376 34.5156 14.2772 34.2835 13.864 33.8703C13.4509 33.4572 13.2188 32.8968 13.2188 32.3125V22.0312C13.2188 21.4469 13.4509 20.8866 13.864 20.4734C14.2772 20.0602 14.8376 19.8281 15.4219 19.8281C16.0062 19.8281 16.5666 20.0602 16.9797 20.4734C17.3929 20.8866 17.625 21.4469 17.625 22.0312ZM12.4844 14.6875C12.4844 14.1065 12.6567 13.5386 12.9794 13.0555C13.3022 12.5724 13.761 12.1959 14.2977 11.9736C14.8345 11.7513 15.4251 11.6931 15.995 11.8064C16.5648 11.9198 17.0882 12.1996 17.499 12.6104C17.9098 13.0212 18.1896 13.5446 18.3029 14.1144C18.4163 14.6842 18.3581 15.2749 18.1358 15.8116C17.9134 16.3484 17.5369 16.8072 17.0539 17.1299C16.5708 17.4527 16.0029 17.625 15.4219 17.625C14.6428 17.625 13.8956 17.3155 13.3447 16.7646C12.7939 16.2137 12.4844 15.4666 12.4844 14.6875Z" fill="#A7A7A7"/>
</svg>
