<svg width="77" height="69" viewBox="0 0 77 69" fill="none" xmlns="http://www.w3.org/2000/svg">
<path d="M59.0583 42.5516C58.6877 42.6735 58.3071 42.7912 57.9193 42.9054C57.0609 40.2071 55.9024 37.3377 54.4852 34.3735C55.8379 31.4793 56.9514 28.6469 57.7857 25.9659C58.4794 26.1656 59.1529 26.3757 59.8018 26.5978C66.0776 28.7429 69.9055 31.9151 69.9055 34.3592C69.9055 36.9627 65.7709 40.3427 59.0583 42.5516Z" fill="#A7A7A7"/>
<path d="M56.2731 48.0326C56.9517 51.437 57.0486 54.515 56.599 56.9213C56.195 59.0834 55.3829 60.5248 54.3786 61.1021C52.2413 62.3307 47.6706 60.7337 42.7417 56.5216C42.1766 56.0387 41.6072 55.5231 41.0364 54.9776C42.9473 52.902 44.8571 50.4889 46.7209 47.8093C49.9996 47.5205 53.097 47.0481 55.906 46.4034C56.0441 46.9578 56.1671 47.5011 56.2731 48.0326Z" fill="#A7A7A7"/>
<path d="M28.1053 60.8899C26.0173 61.6222 24.3542 61.6431 23.3491 61.0675C21.2097 59.8425 20.3207 55.1123 21.5335 48.7682C21.6778 48.0184 21.8429 47.2728 22.0288 46.5322C24.8065 47.1423 27.8814 47.5813 31.1679 47.846C33.044 50.468 35.009 52.8781 36.9893 54.9887C36.5685 55.393 36.1376 55.7869 35.6972 56.1702C33.066 58.4545 30.429 60.0747 28.1053 60.8899Z" fill="#A7A7A7"/>
<path d="M18.323 42.5355C15.0161 41.413 12.2852 39.9543 10.4132 38.3627C8.73124 36.932 7.88186 35.5118 7.88186 34.3592C7.88186 31.9071 11.5636 28.7789 17.7041 26.6529C18.4748 26.3872 19.2532 26.144 20.0383 25.9235C20.887 28.6648 22.0002 31.5309 23.3437 34.4292C21.9828 37.3708 20.8537 40.2825 19.9971 43.0559C19.4349 42.8961 18.8767 42.7226 18.323 42.5355Z" fill="#A7A7A7"/>
<path d="M21.6023 20.3689C20.3276 13.9002 21.174 9.02069 23.304 7.79626C25.5731 6.49196 30.5898 8.35184 35.8776 13.0144C36.2156 13.3124 36.555 13.6245 36.8951 13.9473C34.925 16.0483 32.978 18.4402 31.1181 21.047C27.9285 21.3406 24.8752 21.8121 22.0684 22.4437C21.8955 21.756 21.7401 21.0644 21.6023 20.3689Z" fill="#A7A7A7"/>
<path d="M50.8556 27.5423C50.1926 26.405 49.5051 25.2821 48.7934 24.1742C50.9574 24.4455 53.0304 24.8061 54.9771 25.2476C54.3927 27.1077 53.6643 29.0529 52.8065 31.0469C52.1798 29.8659 51.5293 28.6975 50.8556 27.5423Z" fill="#A7A7A7"/>
<path d="M38.9261 16.0033C40.2623 17.4408 41.6006 19.0462 42.917 20.7877C40.2467 20.6624 37.5719 20.6618 34.9016 20.7859C36.2192 19.0605 37.5689 17.4575 38.9261 16.0033Z" fill="#A7A7A7"/>
<path d="M26.9201 27.562C26.2548 28.708 25.6165 29.8692 25.0058 31.0448C24.1621 29.0576 23.4403 27.1039 22.8508 25.2171C24.7858 24.7871 26.8492 24.4356 28.9991 24.1689C28.2795 25.2836 27.5863 26.4149 26.9201 27.562Z" fill="#A7A7A7"/>
<path d="M29.0609 44.7548C26.8399 44.5086 24.7453 44.1751 22.8109 43.7569C23.4097 41.8369 24.1474 39.8411 25.0091 37.8113C25.6224 38.9877 26.2635 40.1497 26.9318 41.2962C27.6137 42.4657 28.3236 43.6189 29.0609 44.7548Z" fill="#A7A7A7"/>
<path d="M39.0062 52.9183C37.6331 51.4468 36.2636 49.8194 34.9259 48.0689C36.2243 48.1196 37.5482 48.1452 38.8937 48.1452C40.2761 48.1452 41.6426 48.1145 42.9875 48.0549C41.6669 49.8373 40.3334 51.4671 39.0062 52.9183Z" fill="#A7A7A7"/>
<path d="M52.8341 37.7079C53.7405 39.7597 54.5047 41.7448 55.1115 43.6324C53.145 44.0779 51.0222 44.4368 48.7853 44.7033C49.5021 43.5747 50.1963 42.4322 50.8673 41.2762C51.5495 40.1014 52.2052 38.9117 52.8341 37.7079Z" fill="#A7A7A7"/>
<path fill-rule="evenodd" clip-rule="evenodd" d="M48.3576 39.839C47.3303 41.6112 46.2452 43.3498 45.1041 45.052C43.092 45.1948 41.0127 45.2684 38.8937 45.2684C36.7834 45.2684 34.7305 45.2031 32.7535 45.0758C31.5828 43.3776 30.4772 41.636 29.4391 39.8548C28.4059 38.083 27.4407 36.2729 26.5458 34.4283C27.4384 32.5832 28.4007 30.7722 29.4304 28.9989C30.4598 27.2253 31.5567 25.4917 32.7187 23.8008C34.7356 23.6494 36.8035 23.5701 38.894 23.5701C40.9937 23.5701 43.0644 23.65 45.0807 23.8026C46.2309 25.4909 47.3208 27.219 48.3483 28.9837C49.3816 30.753 50.3566 32.5552 51.2719 34.3875C50.366 36.2384 49.3938 38.0567 48.3576 39.839ZM44.9496 34.3593C44.9496 31.038 42.2385 28.3453 38.8938 28.3453C35.5494 28.3453 32.8379 31.038 32.8379 34.3593C32.8379 37.6808 35.5494 40.3735 38.8938 40.3735C42.2385 40.3735 44.9496 37.6808 44.9496 34.3593Z" fill="#A7A7A7"/>
<path d="M54.3342 7.71072C56.605 9.01145 57.4883 14.2564 56.0615 21.1347C55.9679 21.5827 55.8663 22.0291 55.7565 22.4735C52.9431 21.8288 49.8877 21.349 46.6888 21.0509C44.8253 18.4158 42.8945 16.0197 40.9562 13.9458C41.4641 13.4595 41.9841 12.9859 42.5157 12.5252C47.5226 8.19805 52.202 6.48958 54.3342 7.71072Z" fill="#A7A7A7"/>
<path fill-rule="evenodd" clip-rule="evenodd" d="M15.1457 48.419C6.26768 45.4053 0.63623 40.0591 0.63623 34.3319C0.63623 28.7603 6.56722 23.811 15.1457 20.8409C13.3671 11.8136 14.7582 4.53945 19.6336 1.73681C24.69 -1.16986 31.6607 0.786898 38.93 7.19634C45.9172 1.15768 52.9575 -1.27805 57.8374 1.51654C62.8992 4.41516 64.561 11.3859 62.5996 20.9037C71.3582 23.898 76.9999 28.7376 76.9999 34.3319C76.9999 40.1345 71.8273 44.6933 62.5801 47.7293C64.402 56.8696 62.8842 64.4981 57.8929 67.3675C53.0367 70.1591 46.0774 67.8432 39.1914 61.9583C32.1271 68.0909 24.6843 70.0714 19.6886 67.2101C14.8282 64.4265 13.3728 57.2824 15.1457 48.419ZM58.5618 23.1939C59.2952 23.4034 60.0232 23.6312 60.745 23.8771C68.0695 26.3811 72.8027 30.3035 72.8027 34.3592C72.8027 38.5889 67.7445 42.7245 59.9697 45.2824C59.5589 45.4177 59.1378 45.5477 58.7086 45.6734C58.8616 46.285 58.9982 46.8856 59.1153 47.4737C60.6502 55.1728 59.4682 61.5009 55.8306 63.5921C52.3085 65.6168 46.6161 63.6278 40.8522 58.7024C40.2257 58.1658 39.6144 57.6119 39.019 57.0414C38.5463 57.4953 38.0742 57.9284 37.6038 58.3367C31.6533 63.5021 25.5425 65.6451 21.9016 63.5602C18.3765 61.5408 17.2687 55.6503 18.6871 48.2317C18.8421 47.4254 19.0198 46.6236 19.2199 45.8272C18.6039 45.6526 17.9925 45.4628 17.386 45.2579C9.90722 42.7197 4.98498 38.5332 4.98498 34.3592C4.98498 30.3181 9.57047 26.4219 16.7503 23.9361C17.5529 23.6583 18.3918 23.3972 19.2604 23.1522C19.0743 22.413 18.9072 21.6692 18.7592 20.9215C17.2714 13.3717 18.3183 7.33814 21.8527 5.30628C25.5386 3.18739 31.6773 5.46276 37.8016 10.863C38.1826 11.1996 38.5572 11.5432 38.9254 11.8937C39.4751 11.3667 40.0381 10.8535 40.6139 10.3548C46.4576 5.30479 52.2436 3.19216 55.7813 5.21836C59.4712 7.33099 60.5517 13.7488 58.8992 21.7153C58.7959 22.2102 58.6834 22.7031 58.5618 23.1939Z" fill="#A7A7A7"/>
</svg>
