<svg width="48" height="48" viewBox="0 0 48 48" fill="none" xmlns="http://www.w3.org/2000/svg">
<path d="M40.5457 38.9739L29.3464 21.3856L40.3107 9.32535C40.6954 8.89168 40.8937 8.32384 40.8625 7.74495C40.8314 7.16605 40.5733 6.62277 40.1443 6.23287C39.7153 5.84297 39.1498 5.63789 38.5706 5.66209C37.9914 5.68629 37.445 5.93782 37.05 6.36215L26.9028 17.532L19.9832 6.66141C19.7843 6.34874 19.5098 6.09128 19.185 5.91285C18.8603 5.73443 18.4957 5.6408 18.1252 5.64062H9.31269C8.91803 5.64081 8.53067 5.747 8.19109 5.94809C7.85152 6.14919 7.57219 6.43781 7.38232 6.78379C7.19244 7.12977 7.09899 7.5204 7.11173 7.91485C7.12446 8.3093 7.24292 8.69309 7.45472 9.02609L18.6539 26.6144L7.68237 38.6746C7.48373 38.888 7.32941 39.1387 7.22836 39.4122C7.12731 39.6857 7.08155 39.9765 7.09372 40.2678C7.10589 40.5591 7.17575 40.845 7.29926 41.1091C7.42276 41.3732 7.59746 41.6102 7.81321 41.8062C8.02897 42.0023 8.2815 42.1536 8.55616 42.2514C8.83082 42.3491 9.12215 42.3914 9.41328 42.3757C9.7044 42.3601 9.98951 42.2868 10.2521 42.1601C10.5147 42.0335 10.7495 41.8559 10.943 41.6379L21.0976 30.468L28.0172 41.3386C28.2161 41.6513 28.4906 41.9087 28.8154 42.0872C29.1401 42.2656 29.5046 42.3592 29.8752 42.3594H38.6877C39.0823 42.3592 39.4697 42.253 39.8093 42.0519C40.1489 41.8508 40.4282 41.5622 40.6181 41.2162C40.8079 40.8702 40.9014 40.4796 40.8886 40.0852C40.8759 39.6907 40.7575 39.3069 40.5457 38.9739ZM31.0851 37.9531L13.326 10.0469H16.9153L34.6743 37.9531H31.0851Z" fill="#A7A7A7"/>
</svg>
