<svg width="47" height="47" viewBox="0 0 47 47" fill="none" xmlns="http://www.w3.org/2000/svg">
<path d="M38.2773 27.9962L25.0585 41.215C24.8538 41.4204 24.6106 41.5833 24.3428 41.6945C24.075 41.8057 23.7879 41.8629 23.498 41.8629C23.208 41.8629 22.9209 41.8057 22.6531 41.6945C22.3853 41.5833 22.1421 41.4204 21.9374 41.215L8.71867 27.9962C8.30478 27.5823 8.07227 27.021 8.07227 26.4357C8.07227 25.8503 8.30478 25.289 8.71867 24.8751C9.13255 24.4612 9.69389 24.2287 10.2792 24.2287C10.8645 24.2287 11.4259 24.4612 11.8398 24.8751L21.2967 34.332V7.34375C21.2967 6.75944 21.5288 6.19907 21.942 5.78591C22.3551 5.37274 22.9155 5.14063 23.4998 5.14062C24.0841 5.14062 24.6445 5.37274 25.0576 5.78591C25.4708 6.19907 25.7029 6.75944 25.7029 7.34375V34.332L35.1598 24.8733C35.5737 24.4594 36.1351 24.2269 36.7204 24.2269C37.3057 24.2269 37.867 24.4594 38.2809 24.8733C38.6948 25.2872 38.9273 25.8485 38.9273 26.4338C38.9273 27.0191 38.6948 27.5805 38.2809 27.9944L38.2773 27.9962Z" fill="#FDFDFD"/>
</svg>
