<svg width="41" height="41" viewBox="0 0 41 41" fill="none" xmlns="http://www.w3.org/2000/svg">
<path d="M32.3749 10.5V26.75C32.3749 27.2473 32.1774 27.7242 31.8258 28.0758C31.4741 28.4275 30.9972 28.625 30.4999 28.625C30.0027 28.625 29.5257 28.4275 29.1741 28.0758C28.8225 27.7242 28.6249 27.2473 28.6249 26.75V15.0313L11.8265 31.8266C11.4743 32.1788 10.9965 32.3767 10.4984 32.3767C10.0002 32.3767 9.52249 32.1788 9.17024 31.8266C8.818 31.4743 8.62012 30.9966 8.62012 30.4984C8.62012 30.0003 8.818 29.5226 9.17024 29.1703L25.9687 12.375H14.2499C13.7527 12.375 13.2757 12.1775 12.9241 11.8258C12.5725 11.4742 12.3749 10.9973 12.3749 10.5C12.3749 10.0027 12.5725 9.52581 12.9241 9.17417C13.2757 8.82254 13.7527 8.625 14.2499 8.625H30.4999C30.9972 8.625 31.4741 8.82254 31.8258 9.17417C32.1774 9.52581 32.3749 10.0027 32.3749 10.5Z" fill="#A7A7A7"/>
</svg>
