<svg width="47" height="47" viewBox="0 0 47 47" fill="none" xmlns="http://www.w3.org/2000/svg">
<path d="M23.5 3.67188C19.5784 3.67188 15.7448 4.83477 12.4841 7.01352C9.22337 9.19226 6.68195 12.289 5.18121 15.9121C3.68047 19.5352 3.2878 23.522 4.05288 27.3683C4.81795 31.2146 6.70639 34.7476 9.47941 37.5206C12.2524 40.2936 15.7855 42.1821 19.6317 42.9471C23.478 43.7122 27.4648 43.3195 31.0879 41.8188C34.711 40.3181 37.8078 37.7766 39.9865 34.5159C42.1652 31.2552 43.3281 27.4216 43.3281 23.5C43.3223 18.243 41.2314 13.2031 37.5142 9.48584C33.7969 5.76861 28.757 3.67771 23.5 3.67188ZM25.7031 38.7621V28.6406H29.375C29.9593 28.6406 30.5197 28.4085 30.9329 27.9953C31.346 27.5822 31.5781 27.0218 31.5781 26.4375C31.5781 25.8532 31.346 25.2928 30.9329 24.8797C30.5197 24.4665 29.9593 24.2344 29.375 24.2344H25.7031V20.5625C25.7031 19.9782 25.9352 19.4178 26.3484 19.0047C26.7616 18.5915 27.322 18.3594 27.9063 18.3594H30.8438C31.4281 18.3594 31.9884 18.1273 32.4016 17.7141C32.8148 17.3009 33.0469 16.7406 33.0469 16.1562C33.0469 15.5719 32.8148 15.0116 32.4016 14.5984C31.9884 14.1852 31.4281 13.9531 30.8438 13.9531H27.9063C26.1533 13.9531 24.4722 14.6495 23.2327 15.889C21.9932 17.1285 21.2969 18.8096 21.2969 20.5625V24.2344H17.625C17.0407 24.2344 16.4803 24.4665 16.0672 24.8797C15.654 25.2928 15.4219 25.8532 15.4219 26.4375C15.4219 27.0218 15.654 27.5822 16.0672 27.9953C16.4803 28.4085 17.0407 28.6406 17.625 28.6406H21.2969V38.7621C17.4379 38.2052 13.9331 36.2072 11.4879 33.1703C9.04269 30.1334 7.83852 26.283 8.11773 22.3941C8.39694 18.5051 10.1388 14.8663 12.9928 12.2098C15.8468 9.5534 19.601 8.07658 23.5 8.07658C27.399 8.07658 31.1532 9.5534 34.0072 12.2098C36.8612 14.8663 38.6031 18.5051 38.8823 22.3941C39.1615 26.283 37.9573 30.1334 35.5121 33.1703C33.0669 36.2072 29.5621 38.2052 25.7031 38.7621Z" fill="#598EFF"/>
</svg>
