<svg width="47" height="47" viewBox="0 0 47 47" fill="none" xmlns="http://www.w3.org/2000/svg">
<path d="M34.387 29.2022C34.0845 30.6991 33.2742 32.0454 32.0933 33.0136C30.9123 33.9818 29.4332 34.5123 27.9062 34.5155C23.8174 34.5111 19.8973 32.8849 17.0061 29.9937C14.1149 27.1024 12.4887 23.1824 12.4843 19.0936C12.4874 17.5665 13.018 16.0874 13.9861 14.9065C14.9543 13.7255 16.3007 12.9153 17.7975 12.6127C18.2707 12.5191 18.7615 12.5833 19.1946 12.7956C19.6278 13.0078 19.9793 13.3564 20.1952 13.7877L22.3029 18.0104C22.4757 18.3573 22.554 18.7436 22.5299 19.1304C22.5057 19.5172 22.3799 19.8908 22.1652 20.2135L20.601 22.5598C21.4063 24.2392 22.7606 25.5934 24.4399 26.3988L26.7862 24.8346C27.1089 24.6198 27.4825 24.4941 27.8693 24.4699C28.2561 24.4457 28.6425 24.524 28.9894 24.6969L33.212 26.8045C33.6433 27.0204 33.9919 27.372 34.2042 27.8051C34.4164 28.2382 34.4807 28.7291 34.387 29.2022ZM43.328 23.4998C43.3288 26.8962 42.457 30.2359 40.7964 33.1987C39.1358 36.1614 36.7419 38.648 33.8444 40.4199C30.9468 42.1918 27.6427 43.1898 24.2487 43.318C20.8547 43.4463 17.4846 42.7006 14.4616 41.1524L8.50765 43.1444C7.85949 43.3628 7.1632 43.3959 6.49726 43.2398C5.83132 43.0838 5.2222 42.7448 4.73855 42.2612C4.25491 41.7775 3.91596 41.1684 3.75992 40.5025C3.60388 39.8365 3.63694 39.1403 3.85538 38.4921L5.84003 32.5381C4.4772 29.8686 3.73729 26.9249 3.67595 23.9282C3.61461 20.9316 4.23343 17.96 5.48589 15.237C6.73834 12.5139 8.59183 10.1103 10.907 8.20669C13.2222 6.30311 15.9388 4.94917 18.8525 4.24666C21.7663 3.54415 24.8015 3.51136 27.7297 4.15075C30.658 4.79014 33.4032 6.08507 35.759 7.93818C38.1147 9.79129 40.0197 12.1544 41.3307 14.8497C42.6417 17.5451 43.3246 20.5026 43.328 23.4998ZM38.9218 23.4998C38.9209 21.1343 38.3758 18.8007 37.3288 16.6795C36.2817 14.5583 34.7607 12.7065 32.8835 11.2671C31.0062 9.82781 28.823 8.83962 26.5028 8.37902C24.1825 7.91842 21.7874 7.99774 19.5027 8.61086C17.218 9.22398 15.105 10.3545 13.3271 11.9148C11.5492 13.4752 10.1541 15.4237 9.2497 17.6095C8.34529 19.7953 7.95583 22.1599 8.11145 24.5203C8.26706 26.8807 8.96359 29.1736 10.1471 31.2218C10.3036 31.4919 10.4008 31.7921 10.4325 32.1026C10.4641 32.4131 10.4294 32.7268 10.3307 33.0228L8.50765 38.4921L13.9769 36.669C14.2019 36.5941 14.4374 36.5556 14.6746 36.5552C15.0615 36.5559 15.4414 36.6584 15.7761 36.8526C18.1207 38.2092 20.7812 38.9244 23.4899 38.9262C26.1986 38.9279 28.8601 38.2162 31.2064 36.8626C33.5526 35.509 35.501 33.5614 36.8555 31.2155C38.2099 28.8697 38.9226 26.2086 38.9218 23.4998Z" fill="#598EFF"/>
</svg>
