<svg width="40" height="40" viewBox="0 0 40 40" fill="none" xmlns="http://www.w3.org/2000/svg">
<path d="M28.8265 21.3265L16.3265 33.8265C15.9743 34.1787 15.4965 34.3766 14.9984 34.3766C14.5002 34.3766 14.0225 34.1787 13.6702 33.8265C13.318 33.4743 13.1201 32.9965 13.1201 32.4984C13.1201 32.0002 13.318 31.5225 13.6702 31.1702L24.8437 19.9999L13.6734 8.8265C13.499 8.65208 13.3606 8.44503 13.2662 8.21715C13.1718 7.98927 13.1232 7.74503 13.1232 7.49837C13.1232 7.25171 13.1718 7.00747 13.2662 6.77959C13.3606 6.55171 13.499 6.34466 13.6734 6.17024C13.8478 5.99583 14.0548 5.85748 14.2827 5.76309C14.5106 5.6687 14.7548 5.62012 15.0015 5.62012C15.2482 5.62012 15.4924 5.6687 15.7203 5.76309C15.9482 5.85748 16.1552 5.99583 16.3296 6.17024L28.8296 18.6702C29.0042 18.8446 29.1427 19.0518 29.237 19.2798C29.3314 19.5078 29.3798 19.7522 29.3795 19.999C29.3792 20.2458 29.3302 20.4901 29.2353 20.7179C29.1404 20.9457 29.0015 21.1525 28.8265 21.3265Z" fill="#FDFDFD"/>
</svg>
