<svg width="40" height="40" viewBox="0 0 40 40" fill="none" xmlns="http://www.w3.org/2000/svg">
<path d="M11.1735 18.6735L23.6735 6.1735C24.0257 5.82126 24.5035 5.62338 25.0016 5.62338C25.4998 5.62338 25.9775 5.82126 26.3298 6.1735C26.682 6.52574 26.8799 7.00348 26.8799 7.50163C26.8799 7.99977 26.682 8.47751 26.3298 8.82975L15.1563 20.0001L26.3266 31.1735C26.501 31.3479 26.6394 31.555 26.7338 31.7829C26.8282 32.0107 26.8768 32.255 26.8768 32.5016C26.8768 32.7483 26.8282 32.9925 26.7338 33.2204C26.6394 33.4483 26.501 33.6553 26.3266 33.8298C26.1522 34.0042 25.9452 34.1425 25.7173 34.2369C25.4894 34.3313 25.2452 34.3799 24.9985 34.3799C24.7518 34.3799 24.5076 34.3313 24.2797 34.2369C24.0518 34.1425 23.8448 34.0042 23.6704 33.8298L11.1704 21.3298C10.9958 21.1554 10.8573 20.9482 10.763 20.7202C10.6686 20.4922 10.6202 20.2478 10.6205 20.001C10.6208 19.7542 10.6698 19.5099 10.7647 19.2821C10.8596 19.0543 10.9985 18.8475 11.1735 18.6735Z" fill="#FDFDFD"/>
</svg>
