<svg width="50" height="71" viewBox="0 0 50 71" fill="none" xmlns="http://www.w3.org/2000/svg">
<path d="M19.5418 0H12.0986V9.55601H19.5422V6.3708H15.2114V3.1854H19.5418V0Z" fill="#A7A7A7"/>
<path d="M28.474 0H21.0307L21.0305 6.23197H25.3615V6.78591H21.0309V9.69464H28.474V3.32384H24.1434V2.7699H28.474V0Z" fill="#A7A7A7"/>
<path d="M37.4063 0H29.9631V6.23197H34.2935V6.78591H29.9629V9.69464H37.4063V3.32384H33.0756V2.7699H37.4063V0Z" fill="#A7A7A7"/>
<path fill-rule="evenodd" clip-rule="evenodd" d="M25.0608 70.9091L5.01307 65.2137L0.54541 13.9354H49.6363L45.164 65.2058L25.0608 70.9091ZM11.3381 43.4355L10.7873 37.1465L33.1702 37.1465L33.7294 30.7064L10.2391 30.7064L9.68047 24.4173L40.4645 24.4173L39.3551 37.1465L39.2052 38.8353L37.6685 56.455L25.0909 60.0221V60.0232L25.0626 60.0311L12.4736 56.455L11.6127 46.5802H17.782L18.2196 51.596L25.0639 53.4872L25.0695 53.4857L31.9239 51.5921L32.6374 43.4356L11.3381 43.4355Z" fill="#A7A7A7"/>
</svg>
