<svg width="69" height="69" viewBox="0 0 69 69" fill="none" xmlns="http://www.w3.org/2000/svg">
<path d="M34.1817 0.363525C15.3461 0.363525 0.0908203 15.8515 0.0908203 34.9743C0.0908203 51.2399 11.084 64.7396 25.9158 68.5453C25.7446 68.1123 25.6605 67.5055 25.6605 66.9017V61.0164H21.3984C19.0976 61.0164 16.9651 59.9795 16.028 58.0737C14.9196 55.9971 14.7485 52.7952 11.937 50.804C11.0841 50.1118 11.7659 49.4196 12.703 49.505C14.4931 50.0234 15.9409 51.237 17.3046 53.0515C18.6682 54.8689 19.2659 55.3019 21.822 55.3019C23.0144 55.3019 24.8887 55.2165 26.5947 54.9543C27.5318 52.5301 29.1508 50.368 31.1121 49.3312C19.6924 47.9468 14.2378 42.2352 14.2378 34.4471C14.2378 31.0714 15.6856 27.8695 18.0734 25.1007C17.3075 22.4172 16.2833 16.8795 18.4158 14.7174C23.5309 14.7174 26.5976 18.0931 27.3635 18.9562C29.9196 18.0902 32.734 17.5717 35.6295 17.5717C38.6121 17.5717 41.3394 18.0902 43.8955 18.9562C44.6614 18.0902 47.731 14.7174 52.8432 14.7174C54.8887 16.7941 53.9516 22.4172 53.0986 25.1007C55.4864 27.7841 56.85 31.0714 56.85 34.4471C56.85 42.2352 51.4796 47.9468 40.1469 49.1574C43.3007 50.801 45.5173 55.4728 45.5173 58.9338V66.8163C45.5173 67.0755 45.4332 67.3347 45.4332 67.5939C58.7272 62.9222 68.2726 50.1177 68.2726 34.9743C68.2726 15.8515 53.0173 0.363525 34.1817 0.363525Z" fill="#A7A7A7"/>
</svg>
