<svg width="51" height="71" viewBox="0 0 51 71" fill="none" xmlns="http://www.w3.org/2000/svg">
<path d="M7.90399 0H4.69429V9.5621H7.90418V6.36016H10.8406V9.5621H14.0505V0H10.8404V3.15763H7.90399V0Z" fill="#A7A7A7"/>
<path d="M15.446 3.17102H18.2714L18.272 9.5621H21.4819V3.17102H24.3091V0H15.446V3.17102Z" fill="#A7A7A7"/>
<path d="M29.0626 0H25.7157V9.5621H28.8563V4.8226L31.0661 8.22245H31.1215L33.3298 4.8226V9.5621H36.5267V0H33.1783L31.1215 3.35987L29.0626 0Z" fill="#A7A7A7"/>
<path d="M41.335 0H38.1241L38.1239 9.5621H45.849V6.40152H41.335V0Z" fill="#A7A7A7"/>
<path fill-rule="evenodd" clip-rule="evenodd" d="M50.4545 13.9354L45.858 65.2058L25.1964 70.9091L4.59176 65.2137L0 13.9354H50.4545ZM16.869 37.1464L16.2917 30.7063L40.4623 30.7063L41.0277 24.4172L9.38869 24.4173L11.0923 43.4355L32.9832 43.4355L32.2498 51.592L25.2051 53.4852L25.1995 53.4872L18.165 51.5959L17.7152 46.5802H11.3746L12.2594 56.455L25.1981 60.0311L25.2272 60.0232V60.022L38.154 56.4549L39.7335 38.8352L39.8875 37.1464L16.869 37.1464Z" fill="#A7A7A7"/>
</svg>
