<svg width="68" height="69" viewBox="0 0 68 69" fill="none" xmlns="http://www.w3.org/2000/svg">
<path d="M0.0229726 1.31014C-0.117611 0.741011 0.410242 0.232924 0.973593 0.395116L17.3886 5.12104C17.5355 5.12052 17.6808 5.16238 17.805 5.24101L50.1789 14.5616C50.3131 14.5644 50.4452 14.6024 50.5604 14.6713L66.9766 19.3978C67.5406 19.5602 67.717 20.2724 67.2941 20.6793L17.7558 68.3311C17.333 68.7379 16.6284 68.5342 16.4877 67.9647L8.27027 34.698C8.25927 34.6639 8.25064 34.629 8.24446 34.5936L0.0229726 1.31014ZM14.0841 51.8798L17.6504 66.3174L28.3901 55.9864L14.0841 51.8798ZM25.1465 40.4622L14.7486 50.4848L28.6004 54.4614L25.1465 40.4622ZM26.69 40.3552L30.1329 54.31L40.5024 44.3354L26.69 40.3552ZM10.0533 35.5612L13.5112 49.5609L23.8968 39.5504L10.0533 35.5612ZM37.4085 28.6295L26.8438 38.8131L40.9228 42.8702L37.4085 28.6295ZM38.8889 28.2674L42.403 42.5074L52.9967 32.3172L38.8889 28.2674ZM21.0622 23.9042L10.4748 34.0966L24.5795 38.1608L21.0622 23.9042ZM22.5369 23.5197L25.9908 37.5185L36.3887 27.496L22.5369 23.5197ZM5.9045 18.7657L9.41966 32.997L19.9994 22.8118L5.9045 18.7657ZM49.7428 16.7898L39.345 26.8124L53.1967 30.789L49.7428 16.7898ZM51.2289 16.4497L54.7319 30.648L65.2851 20.4967L51.2289 16.4497ZM33.3288 12.0958L22.9775 22.0606L36.7641 26.0181L33.3288 12.0958ZM34.806 11.7214L38.2648 25.7372L48.6657 15.7116L34.806 11.7214ZM16.9711 7.34947L6.57322 17.372L20.425 21.3487L16.9711 7.34947ZM18.4584 7.01471L21.9037 20.9785L32.2764 10.9931L18.4584 7.01471ZM1.81855 2.22407L5.33288 16.4513L15.89 6.27533L1.81855 2.22407Z" fill="#A7A7A7"/>
</svg>
