<svg width="69" height="69" viewBox="0 0 69 69" fill="none" xmlns="http://www.w3.org/2000/svg">
<path fill-rule="evenodd" clip-rule="evenodd" d="M0.272949 0.363525V68.5453H68.4548V0.363525H0.272949ZM15.2218 37.3522V34.5738L15.2729 34.5908V31.7954L27.2048 31.7442C33.7673 31.7442 39.1707 31.7613 39.1707 31.8124C39.2389 31.8465 39.2389 33.0908 39.2389 34.6249V37.3522H30.3752V62.5796H24.0854V37.3522H15.2218ZM59.3185 34.1647C58.1253 32.9204 56.7957 32.1363 55.0571 31.7272L55.0912 31.6931C53.915 31.3863 51.1025 31.284 49.9094 31.5227C46.2275 32.2045 43.6537 34.5908 42.9207 37.9999C42.6821 38.9715 42.7673 41.392 43.023 42.3806C43.3639 43.5227 44.0968 44.9034 44.898 45.7897C46.2957 47.2557 47.7957 48.2102 51.3241 49.7102C54.3923 51.0738 55.4832 51.6875 56.0287 52.4375C56.4207 53.0341 56.54 53.392 56.54 54.1761C56.54 55.0284 56.2673 55.642 55.6366 56.2216C54.1707 57.5511 51.2048 57.7046 48.9889 56.5625C48.2559 56.1534 46.9946 54.9602 46.4321 54.0739L45.9889 53.4773L44.0627 54.6023L41.5059 56.0852L40.8582 56.4943C40.79 56.6136 42.0002 58.4375 42.6309 59.1193C44.2332 60.875 46.8412 62.2387 49.5684 62.75C50.8469 62.9716 53.5741 63.0057 54.7673 62.8012C58.5685 62.1705 61.2276 60.2443 62.3185 57.3977C63.2901 54.7898 62.9662 51.3125 61.5173 49.0966C60.2389 47.1193 58.1253 45.7386 53.2503 43.642C50.6082 42.4829 49.7559 41.9204 49.2957 40.9829C49.0912 40.5397 48.9889 40.2329 48.9889 39.6875C48.9889 37.8977 50.3525 36.8238 52.398 36.9602C53.8128 37.0624 54.7162 37.6079 55.6025 38.8693C55.8753 39.3124 56.148 39.6022 56.2162 39.5511C58.006 38.4431 60.9548 36.4488 60.9548 36.3465C60.8866 36.0397 59.9492 34.8465 59.3185 34.1647Z" fill="#A7A7A7"/>
</svg>
