<svg width="48" height="47" viewBox="0 0 48 47" fill="none" xmlns="http://www.w3.org/2000/svg">
<path d="M34.887 29.2025C34.5845 30.6993 33.7742 32.0457 32.5933 33.0138C31.4123 33.982 29.9332 34.5125 28.4062 34.5157C24.3174 34.5113 20.3973 32.8851 17.5061 29.9939C14.6149 27.1027 12.9887 23.1826 12.9843 19.0938C12.9874 17.5667 13.518 16.0876 14.4861 14.9067C15.4543 13.7258 16.8007 12.9155 18.2975 12.613C18.7707 12.5193 19.2615 12.5836 19.6946 12.7958C20.1278 13.0081 20.4793 13.3566 20.6952 13.788L22.8029 18.0106C22.9757 18.3575 23.054 18.7439 23.0299 19.1307C23.0057 19.5175 22.8799 19.8911 22.6652 20.2137L21.101 22.5601C21.9063 24.2394 23.2606 25.5937 24.9399 26.399L27.2862 24.8348C27.6089 24.6201 27.9825 24.4943 28.3693 24.4701C28.7561 24.4459 29.1425 24.5242 29.4894 24.6971L33.712 26.8048C34.1433 27.0207 34.4919 27.3722 34.7042 27.8053C34.9164 28.2385 34.9807 28.7293 34.887 29.2025ZM43.828 23.5001C43.8288 26.8965 42.957 30.2362 41.2964 33.1989C39.6358 36.1617 37.2419 38.6482 34.3444 40.4202C31.4468 42.1921 28.1427 43.19 24.7487 43.3183C21.3547 43.4465 17.9846 42.7008 14.9616 41.1526L9.00765 43.1446C8.35949 43.363 7.6632 43.3961 6.99726 43.2401C6.33132 43.084 5.7222 42.7451 5.23855 42.2614C4.75491 41.7778 4.41596 41.1687 4.25992 40.5027C4.10388 39.8368 4.13694 39.1405 4.35538 38.4923L6.34003 32.5384C4.9772 29.8689 4.23729 26.9251 4.17595 23.9285C4.11461 20.9318 4.73343 17.9603 5.98589 15.2372C7.23834 12.5142 9.09183 10.1105 11.407 8.20694C13.7222 6.30336 16.4388 4.94942 19.3525 4.24691C22.2663 3.5444 25.3015 3.5116 28.2297 4.15099C31.158 4.79038 33.9032 6.08531 36.259 7.93843C38.6147 9.79154 40.5197 12.1546 41.8307 14.85C43.1417 17.5453 43.8246 20.5028 43.828 23.5001ZM39.4218 23.5001C39.4209 21.1345 38.8758 18.8009 37.8288 16.6798C36.7817 14.5586 35.2607 12.7067 33.3835 11.2674C31.5062 9.82805 29.323 8.83987 27.0028 8.37926C24.6825 7.91866 22.2874 7.99799 20.0027 8.6111C17.718 9.22422 15.605 10.3547 13.8271 11.9151C12.0492 13.4755 10.6541 15.4239 9.7497 17.6097C8.84529 19.7955 8.45583 22.1601 8.61145 24.5205C8.76706 26.8809 9.46359 29.1739 10.6471 31.222C10.8036 31.4921 10.9008 31.7923 10.9325 32.1028C10.9641 32.4133 10.9294 32.727 10.8307 33.0231L9.00765 38.4923L14.4769 36.6693C14.7019 36.5943 14.9374 36.5559 15.1746 36.5554C15.5615 36.5561 15.9414 36.6587 16.2761 36.8528C18.6207 38.2095 21.2812 38.9247 23.9899 38.9264C26.6986 38.9282 29.3601 38.2164 31.7064 36.8629C34.0526 35.5093 36.001 33.5616 37.3555 31.2158C38.7099 28.87 39.4226 26.2088 39.4218 23.5001Z" fill="#A7A7A7"/>
</svg>
